<svg width="223" height="45" viewBox="0 0 223 45" fill="none" xmlns="http://www.w3.org/2000/svg">
<path fill-rule="evenodd" clip-rule="evenodd" d="M13.3645 22.5018H22.3949L18.6637 33.7527H27.6906L31.4218 22.5018H22.3949L26.1261 11.2509H39.2C40.0887 11.2509 40.9627 11.4649 41.7487 11.8706C42.5383 12.2764 43.2213 12.8666 43.7391 13.5896C44.257 14.3127 44.5947 15.15 44.7271 16.0316C44.8592 16.9132 44.7821 17.8134 44.4994 18.6581L37.037 41.1599C36.6661 42.2814 35.9536 43.2551 34.9988 43.9451C34.0439 44.6349 32.9018 45.0074 31.7266 45.0074H14.9289L18.6637 33.7601H5.60094C4.71221 33.7601 3.83817 33.5499 3.04859 33.1404C2.25902 32.7346 1.57595 32.1445 1.05814 31.4214C0.540325 30.6984 0.198789 29.861 0.0665817 28.9794C-0.0656258 28.0978 0.00782278 27.1977 0.2906 26.353L7.75299 3.84745C8.1239 2.72604 8.83635 1.75219 9.7875 1.06238C10.7423 0.372571 11.8881 0 13.0633 0H29.8536L26.1224 11.2509H17.0957L13.3645 22.5018Z" fill="#3DDC91"/>
<path fill-rule="evenodd" clip-rule="evenodd" d="M208.829 30.6395C208.829 34.4795 211.528 36.9252 215.968 36.9252H216.206C220.147 36.9252 222.928 34.948 222.928 31.6466C222.928 27.729 219.954 26.8769 216.171 25.8292L215.99 25.7813C213.706 25.1468 211.653 24.575 211.653 22.4208C211.653 20.7129 213.005 19.5102 215.59 19.5102H215.821C218.723 19.5102 220.107 21.1776 220.107 23.4648H222.424C222.424 19.691 219.645 17.3745 215.821 17.3745H215.59C211.84 17.3745 209.37 19.4291 209.37 22.4171C209.37 26.0616 212.262 26.9949 215.931 28.0426C216.024 28.0683 216.112 28.0941 216.203 28.1163C218.499 28.7434 220.64 29.3336 220.64 31.6096C220.64 33.4319 219.443 34.7893 216.2 34.7893H215.968C212.611 34.7893 211.179 33.0446 211.179 30.6395H208.826H208.829ZM184.128 28.0019C184.128 33.4724 181.04 34.7525 177.797 34.7525H177.643C175.318 34.7525 173.938 33.7048 173.938 31.9969V31.7645C173.938 29.9422 175.48 29.0864 178.877 28.5811L184.125 27.8876V28.0019H184.128ZM189.333 34.3652H186.438V24.7706C186.438 20.1926 184.394 17.3634 179.682 17.3634H179.605C175.165 17.3634 172.574 19.9234 172.347 23.7635H174.859C175.013 21.126 176.402 19.5361 179.531 19.5361H179.685C182.81 19.5361 184.125 21.4838 184.125 24.6267V25.8292L178.528 26.6075C174.242 27.1498 171.579 28.5073 171.579 31.8052V32.0376C171.579 35.6858 174.941 36.9252 177.371 36.9252H177.525C180.691 36.9252 182.781 35.5677 183.702 33.5094H184.125L184.32 36.5342H188.616L189.336 34.3615L189.333 34.3652ZM158.484 34.3246H170.067V36.5342H156.13V10.0816H158.484V34.3246ZM140.147 24.9366C140.302 21.5613 141.462 20.4361 144.088 20.4361H144.319C146.905 20.4361 148.102 21.5613 148.256 24.9366H140.147ZM140.136 27.9614H152.344L152.351 25.5968C152.351 19.6984 149.108 16.7141 144.323 16.7141H144.092C139.266 16.7141 136.06 19.6984 136.06 25.5968V28.083C136.06 33.9779 139.303 36.9289 144.169 36.9289H144.499C148.513 36.9289 151.525 34.6751 152.142 30.68H147.896C147.547 32.5024 146.313 33.2437 144.385 33.2437H144.154C141.29 33.2437 140.14 31.9232 140.14 28.083V27.9651L140.136 27.9614ZM125.59 36.9252C120.878 36.9252 117.599 33.9779 117.599 28.0794V25.5968C117.599 19.6984 120.878 16.7141 125.59 16.7141H125.667C129.989 16.7141 133.232 19.3148 133.427 24.1619H129.255C129.178 21.8342 127.907 20.5542 125.627 20.5542H125.549C122.964 20.5542 121.767 21.9891 121.767 25.5968V28.0794C121.767 31.6466 122.964 33.1221 125.549 33.1221H125.627C127.904 33.1221 129.178 31.8052 129.255 29.5144H133.427C133.232 34.3763 129.989 36.9215 125.667 36.9215H125.59V36.9252ZM114.161 36.5453V17.1014H109.923V28.238C109.923 31.108 108.535 32.9339 105.869 32.9339H105.715C103.856 32.9339 102.703 31.8089 102.703 29.1712V17.1014H98.4102V29.4774C98.4102 34.2471 100.764 36.9252 104.356 36.9252H104.51C106.905 36.9252 108.568 35.6858 109.49 33.7048H109.912V36.5416H114.161V36.5453ZM84.8957 33.2807C88.6819 33.2807 89.9158 31.1964 89.9158 28.3561V28.2786L85.4282 28.8209C82.8427 29.1307 82.0715 29.9459 82.0715 31.1485V31.2997C82.0715 32.5392 83.0375 33.277 84.7341 33.277H84.8994L84.8957 33.2807ZM94.007 32.7422H96.8642L95.6045 36.5416H90.2243L89.9158 33.9816H89.4568C88.6085 35.8333 86.9486 36.9289 84.2456 36.9289H84.0877C80.419 36.9289 78.0282 34.7193 78.0282 31.4584V31.2629C78.0282 28.0425 80.2685 26.2977 84.7854 25.7924L89.9195 25.1727V24.6304C89.9195 21.6055 88.6453 20.5579 86.6402 20.5579H86.4859C84.6717 20.5579 83.2027 21.2514 83.0117 23.8926H78.6856C79.1446 18.9275 82.391 16.7178 86.6402 16.7178H86.7944C91.3482 16.7178 94.0144 19.3185 94.0144 24.5861V32.7385L94.007 32.7422ZM66.0157 36.9326C60.6136 36.9326 56.9043 34.2951 56.9043 28.4003H61.1535C61.1535 32.045 62.659 33.0557 66.0157 33.0557H66.247C69.4494 33.0557 70.9184 32.0855 70.9184 29.448C70.9184 26.8105 68.1531 25.8736 65.5824 25.0546C65.1931 24.9292 64.8038 24.8074 64.433 24.6783C59.879 23.1253 57.3304 21.0706 57.3672 16.8395C57.4443 12.1437 60.9587 9.70168 65.5126 9.70168H65.744C70.9552 9.70168 74.5467 12.3392 74.5467 18.2671H70.3014C70.3014 14.582 68.9206 13.5713 65.744 13.5713H65.5126C63.0006 13.5713 61.6896 14.582 61.6896 16.8286C61.6896 19.5065 64.0069 20.3218 66.6326 21.137C71.4693 22.6495 75.1563 24.5123 75.1563 29.4369C75.1563 34.3615 71.528 36.9252 66.236 36.9252L66.012 36.9363L66.0157 36.9326ZM199.248 34.723C201.914 34.723 203.805 33.0557 203.805 28.1642V26.1096C203.805 21.2218 201.914 19.5914 199.248 19.5914H199.094C196.472 19.5914 193.842 21.2107 193.842 26.1501V28.1679C193.842 33.0962 196.467 34.7267 199.094 34.7267H199.248V34.723ZM199.75 36.9326C197.166 36.9326 195.12 35.5457 194.19 33.4024H193.805V36.5416H191.451V8.61348H193.846V20.8789H194.195C195.16 18.743 197.206 17.3891 199.755 17.3891H199.909C203.382 17.3891 206.203 19.9898 206.203 26.235V28.0573C206.203 34.2619 203.346 36.94 199.949 36.94L199.755 36.9252L199.75 36.9326Z" fill="#132322"/>
</svg>
