<svg width="581" height="78" viewBox="0 0 581 78" fill="none" xmlns="http://www.w3.org/2000/svg">
<path d="M207.148 46.4515L210.176 55.484C206.506 57.5197 203.055 58.5375 199.824 58.5375C194.937 58.5375 191.113 57.1838 188.351 54.4763C185.59 51.7688 184.207 47.677 184.203 42.201V1.06355H194.704V16.3313H207.687V25.1927H194.704V41.3643C194.704 46.0749 196.643 48.4282 200.523 48.4241C202.855 48.3367 205.13 47.6593 207.148 46.4515Z" fill="#131313"/>
<path d="M233.756 15.3603C239.387 15.234 244.839 17.3997 248.932 21.388C253.1 25.4146 255.184 30.5731 255.184 36.8634C255.184 43.1537 253.1 48.3101 248.932 52.3327C244.841 56.3249 239.388 58.4931 233.756 58.3665C227.707 58.3665 222.585 56.3552 218.39 52.3327C214.194 48.3101 212.096 43.1537 212.096 36.8634C212.096 30.5731 214.194 25.4146 218.39 21.388C222.585 17.3614 227.707 15.3521 233.756 15.3603ZM233.756 49.0898C235.211 49.0867 236.652 48.7842 237.993 48.2001C239.334 47.616 240.549 46.762 241.566 45.6882C243.849 43.4163 244.989 40.4747 244.985 36.8634C244.981 33.2521 243.841 30.3105 241.566 28.0386C240.549 26.9639 239.335 26.109 237.994 25.5239C236.653 24.9387 235.212 24.6351 233.756 24.6309C230.761 24.6191 227.884 25.8314 225.756 28.002C223.444 30.2412 222.289 33.1951 222.289 36.8634C222.289 40.5317 223.444 43.4855 225.756 45.7248C227.887 47.8893 230.763 49.0949 233.756 49.0776V49.0898Z" fill="#131313"/>
<path d="M286.17 15.7572C287.11 15.7214 288.049 15.8326 288.956 16.087L288.398 26.5057H286.087C276.634 26.5057 271.907 32.3625 271.907 44.0759V57.2855H261.394V16.3313H271.907V23.8003C275.521 18.4383 280.276 15.7572 286.17 15.7572Z" fill="#131313"/>
<path d="M345.495 15.0977C347.525 15.0678 349.539 15.4638 351.416 16.2618C353.292 17.0597 354.992 18.2428 356.41 19.7391C359.44 22.8293 360.954 26.8091 360.95 31.6785V57.2855H350.514V33.8953C350.514 31.2123 349.771 29.0646 348.286 27.4523C347.577 26.6619 346.713 26.0354 345.752 25.6143C344.791 25.1932 343.754 24.9871 342.71 25.0095C341.419 24.9525 340.133 25.2104 338.957 25.7622C337.781 26.314 336.748 27.1442 335.942 28.1852C334.295 30.2901 333.471 33.4231 333.471 37.584V57.2794H322.958V33.8892C322.958 31.2062 322.216 29.0585 320.73 27.4462C320.022 26.6554 319.158 26.0288 318.197 25.6076C317.235 25.1865 316.198 24.9806 315.154 25.0034C312.286 25.0034 310.056 26.0436 308.464 28.1241C306.872 30.2046 306.081 33.3518 306.093 37.5657V57.2611H295.563V16.3313H306.076V19.6963C309.042 16.6306 312.993 15.0977 317.927 15.0977C323.656 15.0977 328.001 17.3369 330.964 21.8155C334.492 17.341 339.336 15.1017 345.495 15.0977Z" fill="#131313"/>
<path d="M430.556 15.3603C436.187 15.234 441.639 17.3997 445.732 21.388C449.896 25.4146 451.98 30.5731 451.984 36.8634C451.988 43.1537 449.904 48.3101 445.732 52.3327C441.639 56.3204 436.186 58.4842 430.556 58.3543C424.503 58.3543 419.381 56.343 415.19 52.3205C410.998 48.2979 408.9 43.1415 408.896 36.8512C408.896 30.5609 410.994 25.4024 415.19 21.3758C419.385 17.3492 424.507 15.344 430.556 15.3603ZM430.556 49.0898C432.011 49.0867 433.452 48.7842 434.793 48.2001C436.134 47.616 437.349 46.762 438.366 45.6882C440.645 43.4163 441.785 40.4747 441.785 36.8634C441.785 33.2521 440.645 30.3105 438.366 28.0386C437.35 26.9617 436.136 26.1045 434.795 25.5173C433.454 24.93 432.013 24.6245 430.556 24.6186C427.561 24.6069 424.684 25.8191 422.556 27.9898C420.244 30.229 419.089 33.1828 419.089 36.8512C419.089 40.5195 420.244 43.4733 422.556 45.7126C424.685 47.8815 427.562 49.0917 430.556 49.0776V49.0898Z" fill="#131313"/>
<path d="M483.154 15.7572C484.093 15.7214 485.032 15.8326 485.939 16.087L485.382 26.5057H483.071C473.617 26.5057 468.89 32.3625 468.89 44.0759V57.2855H458.407V16.3313H468.92V23.8003C472.515 18.4383 477.26 15.7572 483.154 15.7572Z" fill="#131313"/>
<path d="M532.132 16.3313V58.2688C532.132 64.4003 530.048 69.1903 525.88 72.6388C521.712 76.0873 516.337 77.8095 509.756 77.8054C500.515 77.8054 494.064 74.7966 490.401 68.7791L498.923 61.3101C500.226 63.1218 501.846 64.6669 503.699 65.866C505.24 66.7699 507.259 67.2218 509.756 67.2218C513.256 67.2218 516.108 66.3179 518.313 64.5102C520.517 62.7025 521.619 60.0765 521.619 56.6321V53.7556C518.277 56.9313 513.898 58.5192 508.481 58.5192C503.219 58.5192 498.652 56.4672 494.781 52.3632C490.909 48.2592 488.971 43.0886 488.967 36.8512C488.967 30.6097 490.919 25.4248 494.822 21.2964C498.725 17.168 503.269 15.1017 508.452 15.0977C513.86 15.0977 518.239 16.6855 521.59 19.8612V16.3313H532.132ZM510.313 49.0776C511.781 49.0802 513.235 48.7807 514.589 48.1966C515.944 47.6125 517.171 46.7555 518.2 45.6759C520.479 43.4041 521.619 40.4625 521.619 36.8512C521.619 33.2398 520.479 30.286 518.2 27.9898C517.179 26.8947 515.954 26.0231 514.599 25.4271C513.244 24.8311 511.786 24.5229 510.313 24.5209C508.824 24.4748 507.343 24.7504 505.964 25.33C504.585 25.9095 503.339 26.7802 502.307 27.8859C500.209 30.1334 499.16 33.1157 499.16 36.8329C499.16 40.55 500.209 43.5181 502.307 45.737C503.342 46.8368 504.589 47.7019 505.968 48.2771C507.346 48.8523 508.826 49.1249 510.313 49.0776Z" fill="#131313"/>
<path d="M580.381 36.0267V39.691H550.117C550.521 42.3464 551.772 44.7873 553.673 46.6286C555.405 48.3122 557.703 49.2382 560.084 49.2119C564.592 49.2119 567.883 47.4063 569.957 43.7949L579.355 45.8469C577.869 49.7418 575.219 53.0484 571.788 55.2885C568.259 57.4737 564.201 58.5832 560.084 58.4886C557.394 58.5511 554.719 58.0441 552.226 56.9989C549.733 55.9537 547.474 54.3926 545.59 52.4121C541.639 48.3692 539.664 43.172 539.664 36.8206C539.664 30.4692 541.639 25.2579 545.59 21.1865C547.491 19.1937 549.769 17.6238 552.283 16.5734C554.796 15.523 557.492 15.0146 560.203 15.0793C562.796 15.0423 565.369 15.5427 567.771 16.5509C570.172 17.5591 572.353 19.0545 574.182 20.9483C578.097 24.8772 580.163 29.9033 580.381 36.0267ZM560.227 24.5209C558.049 24.5202 555.923 25.2064 554.135 26.4874C552.257 27.7954 550.932 29.7912 550.431 32.0693H569.625C569.153 29.811 567.91 27.8022 566.123 26.408C564.405 25.1436 562.338 24.482 560.227 24.5209Z" fill="#131313"/>
<path d="M155.533 1.06355C160.95 1.06355 165.568 2.48854 169.388 5.33852C173.161 8.10262 175.757 12.258 176.636 16.942L165.803 19.2383C165.65 18.0172 165.262 16.8401 164.66 15.7764C164.059 14.7128 163.256 13.7842 162.301 13.0457C160.29 11.4669 157.818 10.6399 155.29 10.7006C152.691 10.7006 150.595 11.3581 149.003 12.6732C148.266 13.231 147.667 13.9604 147.255 14.802C146.843 15.6436 146.63 16.5735 146.633 17.5161C146.633 20.5289 148.41 22.3896 151.966 23.098L163.433 25.4797C167.841 26.465 171.278 28.2829 173.744 30.9334C176.221 33.59 177.447 37.0405 177.447 41.2361C177.447 46.5289 175.512 50.7428 171.64 53.8778C167.768 57.0128 162.642 58.5721 156.262 58.5558C150.372 58.5558 145.343 57.1451 141.175 54.3236C139.16 53.003 137.463 51.2266 136.213 49.1293C134.964 47.032 134.194 44.6689 133.963 42.2193L145.335 39.7887C146.721 45.7492 150.704 48.7295 157.281 48.7295C160.308 48.7295 162.644 48.074 164.292 46.763C165.064 46.1949 165.691 45.4428 166.121 44.5709C166.55 43.6989 166.768 42.7329 166.757 41.7552C166.796 41.0482 166.692 40.3406 166.454 39.6765C166.215 39.0124 165.846 38.4062 165.37 37.8955C164.438 36.9672 162.832 36.2568 160.553 35.7641L149.24 33.5472C139.897 31.5115 135.223 26.2594 135.219 17.7909C135.159 15.4706 135.624 13.1676 136.579 11.0653C137.533 8.96293 138.951 7.11913 140.718 5.68052C144.381 2.60254 149.319 1.06355 155.533 1.06355Z" fill="#131313"/>
<path d="M382.407 12.3922V25.8279H402.372V35.9229H382.407V57.2611H371.575V2.29718H411.397V12.3922H382.407Z" fill="#131313"/>
<path d="M106.816 11.2868C108.523 10.7738 110.638 10.4685 112.363 10.0654V0.959727H86.1111L77.1333 11.9098L89.5007 12.4167L58.3066 42.4941L73.2222 19.0673L59.3851 18.652L71.6755 0.941406H37.3051C37.1214 2.52925 36.9614 3.9461 36.7659 5.61334H0.546631C1.02663 6.66987 1.18663 7.44547 1.62515 7.92183C9.53033 16.8382 19.0414 22.8659 30.6977 24.8812C33.5244 25.3698 36.44 25.2721 39.2666 25.7546C44.4755 26.6401 48.0666 30.8296 48.5348 36.2282C49.1274 42.9827 45.72 47.1416 37.2755 49.8654V58.4154H65.1274C67.4444 51.5876 69.8681 49.2547 74.6088 49.2547C79.3496 49.2547 81.957 51.7281 84.037 58.2627H112.274C112.194 56.5391 112.204 54.8124 112.304 53.09C112.659 49.9814 111.711 48.815 108.428 48.3142C100.387 47.0928 94.0696 39.3978 93.6548 31.2632C93.157 21.7056 98.3244 13.8274 106.816 11.2868Z" fill="#131313"/>
</svg>
